<svg xmlns="http://www.w3.org/2000/svg" viewBox="0 0 21.359 21.464">
  <defs>
    <style>
      .cls-1 {
        fill: #fff;
      }
    </style>
  </defs>
  <path id="Path_138" data-name="Path 138" class="cls-1" d="M21.359,1.252V20.717a1.238,1.238,0,0,1-1.263.947H14.835V13.352h2.63c.105,0,.21,0,.21-.105A28.362,28.362,0,0,1,18.1,10.3v-.21H15.151c-.105,0-.21,0-.21-.105V7.776a1.142,1.142,0,0,1,.421-.947,1.7,1.7,0,0,1,.947-.316H18.1c.105,0,.21,0,.21-.21V3.777c0-.105,0-.21-.105-.21a15.848,15.848,0,0,0-3.156-.105,3.782,3.782,0,0,0-1.894.737,4.019,4.019,0,0,0-1.473,2.946v2.63c0,.105,0,.21-.21.21H8.838v3.262h2.736v8.312H1.052C.316,21.348,0,20.928,0,20.4V1.463A1.269,1.269,0,0,1,.842.2h19.57c.105.105.316.105.421.21A1.446,1.446,0,0,1,21.359,1.252Z" transform="translate(0 -0.2)"/>
</svg>
