<svg xmlns="http://www.w3.org/2000/svg" viewBox="0 0 21.859 21.622">
  <defs>
    <style>
      .cls-1 {
        fill: #fff;
      }
    </style>
  </defs>
  <g id="Group_139" data-name="Group 139" transform="translate(-1181.143 -1181.5)">
    <path id="Path_141" data-name="Path 141" class="cls-1" d="M100.8,6.206c.105-.526.21-1.157.316-1.683A5.6,5.6,0,0,1,106.376.1C109.954,0,113.636,0,117.214.1a5.48,5.48,0,0,1,5.366,5.471c.105,3.472.105,6.944,0,10.522a5.626,5.626,0,0,1-5.366,5.471c-3.683.105-7.365.105-10.942,0a5.607,5.607,0,0,1-5.366-5.366c0-.21-.105-.421-.105-.737C100.8,12.309,100.8,9.258,100.8,6.206Zm10.942,13.362h4.524c2.736-.105,4.314-1.578,4.419-4.314.105-2.946.105-6,0-8.943,0-2.736-1.578-4.314-4.419-4.314h-9.049c-2.736,0-4.314,1.473-4.419,4.209q-.158,4.577,0,9.154c.105,2.736,1.683,4.209,4.419,4.209C108.691,19.674,110.269,19.569,111.742,19.569Z" transform="translate(1080.343 1181.475)"/>
    <path id="Path_142" data-name="Path 142" class="cls-1" d="M111.482,16.158a5.57,5.57,0,0,1-5.682-5.576A5.8,5.8,0,0,1,111.482,4.9a5.57,5.57,0,0,1,5.682,5.576A5.726,5.726,0,0,1,111.482,16.158Zm3.683-5.576A3.571,3.571,0,0,0,111.482,7a3.707,3.707,0,0,0-3.683,3.577,3.638,3.638,0,0,0,3.577,3.683A3.821,3.821,0,0,0,115.164,10.582Z" transform="translate(1080.603 1181.729)"/>
    <path id="Path_143" data-name="Path 143" class="cls-1" d="M115.5,4.868A1.373,1.373,0,0,1,116.763,3.5a1.3,1.3,0,0,1,1.368,1.263,1.393,1.393,0,0,1-1.368,1.368A1.358,1.358,0,0,1,115.5,4.868Z" transform="translate(1081.109 1181.656)"/>
  </g>
</svg>
