<svg xmlns="http://www.w3.org/2000/svg" viewBox="0 0 21.359 21.359">
  <defs>
    <style>
      .cls-1 {
        fill: #fff;
      }
    </style>
  </defs>
  <path id="Path_144" data-name="Path 144" class="cls-1" d="M156.054,10.932v8.522a1.889,1.889,0,0,1-2.1,2.1H136.9a1.889,1.889,0,0,1-2.1-2.1V2.3A1.936,1.936,0,0,1,136.9.2h17.15a1.988,1.988,0,0,1,2.1,2.1C156.054,5.25,156.054,8.091,156.054,10.932Zm-9.68-1.578V8.933c0-.737-.105-.842-.842-.842h-2c-.526,0-.631.21-.631.737v9.89c0,.526.21.631.631.631h2.1c.631,0,.737-.21.737-.737v-5.05a2.913,2.913,0,0,1,.316-1.368,1.591,1.591,0,0,1,1.894-1.052,1.459,1.459,0,0,1,1.473,1.263,6.158,6.158,0,0,1,.21,1.368v4.945c0,.526.105.737.737.737h2.21c.631,0,.736-.105.736-.737V14.088a22.218,22.218,0,0,0-.21-2.736,3.355,3.355,0,0,0-2.63-3.051C149.32,7.67,147.636,7.776,146.374,9.354Zm-5.05,4.314V8.828c0-.526-.21-.737-.736-.737h-2.1c-.526,0-.631.21-.631.737v9.785c0,.526.21.737.737.737h2c.631,0,.842-.21.842-.842C141.323,16.824,141.323,15.246,141.323,13.668ZM139.535,2.62a2.247,2.247,0,0,0-2.315,2.21,2.315,2.315,0,0,0,4.63,0A2.247,2.247,0,0,0,139.535,2.62Z" transform="translate(-134.8 -0.2)"/>
</svg>
