<svg xmlns="http://www.w3.org/2000/svg" viewBox="0 0 26.199 21.574">
  <defs>
    <style>
      .cls-1 {
        fill: #fff;
      }
    </style>
  </defs>
  <path id="Path_139" data-name="Path 139" class="cls-1" d="M48.766.1h1.263a5.06,5.06,0,0,1,3.156,1.578.387.387,0,0,0,.316.105A14.01,14.01,0,0,0,56.447.731c.105,0,.21-.105.316-.21a5.662,5.662,0,0,1-2.21,2.946,2.317,2.317,0,0,0,.842-.105c.737-.21,1.368-.421,2.1-.631,0,.105-.105.105-.105.21a10.162,10.162,0,0,1-2.315,2.42.547.547,0,0,0-.21.421A17.048,17.048,0,0,1,54.763,8.1a16.831,16.831,0,0,1-2,6,14.963,14.963,0,0,1-6.1,5.892,15.417,15.417,0,0,1-9.68,1.473,15.57,15.57,0,0,1-4.84-1.683,3.691,3.691,0,0,1-.842-.526,11.148,11.148,0,0,0,7.891-2.315,5.41,5.41,0,0,1-3.156-1.052,4.761,4.761,0,0,1-1.894-2.63,5.2,5.2,0,0,0,2.315-.105A5.432,5.432,0,0,1,33.4,11.253a5.518,5.518,0,0,1-1.157-3.472,4.612,4.612,0,0,0,2.42.631,5.4,5.4,0,0,1-1.578-7.155A15.46,15.46,0,0,0,44.242,6.939a7.247,7.247,0,0,1-.105-2.1A5.444,5.444,0,0,1,47.608.626,2.336,2.336,0,0,1,48.766.1Z" transform="translate(-31.3 -0.1)"/>
</svg>
