<svg xmlns="http://www.w3.org/2000/svg" viewBox="0 0 26.135 17.887">
  <defs>
    <style>
      .cls-1 {
        fill: #fff;
      }
    </style>
  </defs>
  <path id="Path_140" data-name="Path 140" class="cls-1" d="M70.358,19.576a8.764,8.764,0,0,1-2.315-.316c-1.789-.526-2.42-1.894-2.63-3.577a48.542,48.542,0,0,1-.105-8.733,14.523,14.523,0,0,1,.316-2.1,3.4,3.4,0,0,1,3.156-2.525c2.736-.21,5.471-.316,8.207-.421,2.946,0,5.892.105,8.838.21a15.7,15.7,0,0,1,2.21.21,3.348,3.348,0,0,1,2.841,2.841,30.811,30.811,0,0,1,.421,6.208c-.105,1.683-.21,3.367-.421,5.05a3.283,3.283,0,0,1-3.156,2.946c-2.841.21-5.787.316-8.628.421h-.947C78.038,19.787,72.883,19.681,70.358,19.576ZM75.724,6.845v8c2.21-1.368,4.314-2.63,6.418-4C80.037,9.476,77.933,8.213,75.724,6.845Z" transform="translate(-65.161 -1.9)"/>
</svg>
