<svg xmlns="http://www.w3.org/2000/svg" viewBox="0 0 40 40">
  <defs>
    <style>
      .cls-1 {
        fill: #fff;
      }

      .cls-2 {
        fill: #3b5998;
      }
    </style>
  </defs>
  <g id="Group_769" data-name="Group 769" transform="translate(-67 -977)">
    <path id="Path_475" data-name="Path 475" class="cls-1" d="M20,0A20,20,0,1,1,0,20,20,20,0,0,1,20,0Z" transform="translate(67 977)"/>
    <path id="Path_476" data-name="Path 476" class="cls-2" d="M17.186,1.047V16.709a1,1,0,0,1-1.016.762H11.937V10.783h2.117c.085,0,.169,0,.169-.085a22.822,22.822,0,0,1,.339-2.371V8.158H12.191c-.085,0-.169,0-.169-.085V6.3a.919.919,0,0,1,.339-.762,1.366,1.366,0,0,1,.762-.254h1.439c.085,0,.169,0,.169-.169V3.079c0-.085,0-.169-.085-.169a12.752,12.752,0,0,0-2.54-.085,3.043,3.043,0,0,0-1.524.593A3.234,3.234,0,0,0,9.4,5.788V7.9c0,.085,0,.169-.169.169H7.112V10.7h2.2v6.688H.847C.254,17.217,0,16.878,0,16.455V1.216A1.021,1.021,0,0,1,.677.2H16.424c.085.085.254.085.339.169A1.163,1.163,0,0,1,17.186,1.047Z" transform="translate(78.23 988.04)"/>
  </g>
</svg>
