<svg xmlns="http://www.w3.org/2000/svg" viewBox="0 0 40 40">
  <defs>
    <style>
      .cls-1 {
        fill: #fff;
      }

      .cls-2 {
        fill: #4875b4;
      }
    </style>
  </defs>
  <g id="Group_767" data-name="Group 767" transform="translate(-17 -1086)">
    <circle id="Ellipse_22" data-name="Ellipse 22" class="cls-1" cx="20" cy="20" r="20" transform="translate(17 1086)"/>
    <path id="Path_479" data-name="Path 479" class="cls-2" d="M151.893,8.831v6.854a1.519,1.519,0,0,1-1.692,1.692H136.492a1.519,1.519,0,0,1-1.692-1.692V1.892A1.557,1.557,0,0,1,136.492.2h13.793a1.6,1.6,0,0,1,1.692,1.692C151.893,4.262,151.893,6.546,151.893,8.831Zm-7.785-1.269V7.223c0-.592-.085-.677-.677-.677h-1.608c-.423,0-.508.169-.508.592v7.954c0,.423.169.508.508.508h1.692c.508,0,.592-.169.592-.592V10.946a2.342,2.342,0,0,1,.254-1.1A1.279,1.279,0,0,1,145.885,9a1.174,1.174,0,0,1,1.185,1.015,4.952,4.952,0,0,1,.169,1.1v3.977c0,.423.085.592.592.592h1.777c.508,0,.592-.085.592-.592V11.37a17.869,17.869,0,0,0-.169-2.2,2.7,2.7,0,0,0-2.115-2.454A3.119,3.119,0,0,0,144.108,7.562Zm-4.062,3.469V7.139c0-.423-.169-.592-.592-.592h-1.692c-.423,0-.508.169-.508.592v7.869c0,.423.169.592.592.592h1.608c.508,0,.677-.169.677-.677C140.046,13.57,140.046,12.3,140.046,11.031Zm-1.438-8.885a1.807,1.807,0,0,0-1.862,1.777,1.862,1.862,0,1,0,3.723,0A1.807,1.807,0,0,0,138.608,2.146Z" transform="translate(-106.467 1097.133)"/>
  </g>
</svg>
