<svg xmlns="http://www.w3.org/2000/svg" viewBox="0 0 40 40">
  <defs>
    <style>
      .cls-1 {
        fill: #fff;
      }

      .cls-2 {
        fill: #3cf;
      }
    </style>
  </defs>
  <g id="Group_770" data-name="Group 770" transform="translate(-67 -1027)">
    <path id="Path_477" data-name="Path 477" class="cls-1" d="M20,0A20,20,0,1,1,0,20,20,20,0,0,1,20,0Z" transform="translate(67 1027)"/>
    <g id="Group_769" data-name="Group 769" transform="translate(-4190 -59)">
      <path id="Path_478" data-name="Path 478" class="cls-2" d="M45.834.1h1.051a4.21,4.21,0,0,1,2.627,1.313.322.322,0,0,0,.263.088A11.658,11.658,0,0,0,52.225.625c.088,0,.175-.088.263-.175A4.711,4.711,0,0,1,50.649,2.9a1.928,1.928,0,0,0,.7-.088c.613-.175,1.138-.35,1.751-.525,0,.088-.088.088-.088.175a8.456,8.456,0,0,1-1.926,2.014.455.455,0,0,0-.175.35,14.186,14.186,0,0,1-.088,1.926,14.006,14.006,0,0,1-1.664,4.99,12.451,12.451,0,0,1-5.078,4.9,12.829,12.829,0,0,1-8.055,1.226A12.956,12.956,0,0,1,32,16.472a3.071,3.071,0,0,1-.7-.438,9.277,9.277,0,0,0,6.566-1.926,4.5,4.5,0,0,1-2.627-.876,3.961,3.961,0,0,1-1.576-2.189,4.326,4.326,0,0,0,1.926-.088,4.52,4.52,0,0,1-2.539-1.576,4.592,4.592,0,0,1-.963-2.889,3.837,3.837,0,0,0,2.014.525,4.492,4.492,0,0,1-1.313-5.954,12.865,12.865,0,0,0,9.281,4.728,6.031,6.031,0,0,1-.088-1.751,4.53,4.53,0,0,1,2.889-3.5A1.944,1.944,0,0,1,45.834.1Z" transform="translate(4235.033 1097.233)"/>
    </g>
  </g>
</svg>
